<?xml version="1.0" encoding="utf-8"?>
<!-- Generator: Adobe Illustrator 26.0.1, SVG Export Plug-In . SVG Version: 6.00 Build 0)  -->
<svg version="1.1" id="Layer_1" xmlns="http://www.w3.org/2000/svg" xmlns:xlink="http://www.w3.org/1999/xlink" x="0px" y="0px"
	 viewBox="0 0 461 461" style="enable-background:new 0 0 461 461;" xml:space="preserve">
<style type="text/css">
	.st0{fill:#F9FBFC;}
</style>
<g>
	<g id="Layer_2_00000165912676705526240910000016570853877443099305_">
		<g id="OBJECTS">
			<g>
				<path class="st0" d="M8.5,459.2c-2.2,2.2-5.4,2.4-7.3,0.5s-1.6-5.1,0.5-7.2s5.4-2.4,7.2-0.5S10.6,457,8.5,459.2z"/>
				<path class="st0" d="M35,432.7c-2.2,2.2-5.4,2.4-7.2,0.5s-1.6-5.1,0.5-7.2s5.4-2.4,7.2-0.5S37.2,430.5,35,432.7z"/>
				
					<ellipse transform="matrix(0.707 -0.7072 0.7072 0.707 -267.8523 159.1759)" class="st0" cx="58.2" cy="402.8" rx="5.5" ry="4.7"/>
				<path class="st0" d="M88,379.7c-2.2,2.1-5.4,2.4-7.2,0.5s-1.6-5.1,0.6-7.2s5.4-2.4,7.2-0.5S90.2,377.5,88,379.7z"/>
				<path class="st0" d="M114.5,353.2c-2.2,2.1-5.4,2.4-7.2,0.5s-1.6-5.1,0.6-7.2s5.4-2.4,7.2-0.5S116.7,351,114.5,353.2z"/>
				
					<ellipse transform="matrix(0.7071 -0.7071 0.7071 0.7071 -188.2779 192.061)" class="st0" cx="137.7" cy="323.3" rx="5.5" ry="4.7"/>
				<path class="st0" d="M167.6,300.1c-2.1,2.1-5.4,2.4-7.2,0.5s-1.6-5.1,0.5-7.3s5.4-2.4,7.2-0.5S169.7,298,167.6,300.1z"/>
				
					<ellipse transform="matrix(0.7071 -0.7071 0.7071 0.7071 -135.2397 214.0291)" class="st0" cx="190.7" cy="270.3" rx="5.5" ry="4.7"/>
				<path class="st0" d="M220.6,247.1c-2.1,2.1-5.4,2.4-7.2,0.5s-1.6-5.1,0.6-7.2s5.4-2.4,7.2-0.6S222.8,245,220.6,247.1z"/>
				
					<ellipse transform="matrix(0.7071 -0.7071 0.7071 0.7071 -82.2227 235.9861)" class="st0" cx="243.7" cy="217.2" rx="5.5" ry="4.7"/>
				
					<ellipse transform="matrix(0.7071 -0.7071 0.7071 0.7071 -55.705 246.9696)" class="st0" cx="270.3" cy="190.7" rx="5.5" ry="4.7"/>
				
					<ellipse transform="matrix(0.707 -0.7072 0.7072 0.707 -29.1651 258.0047)" class="st0" cx="296.8" cy="164.2" rx="5.5" ry="4.7"/>
				
					<ellipse transform="matrix(0.7071 -0.7071 0.7071 0.7071 -2.678 268.9308)" class="st0" cx="323.3" cy="137.7" rx="5.5" ry="4.7"/>
				
					<ellipse transform="matrix(0.707 -0.7072 0.7072 0.707 23.8711 279.9566)" class="st0" cx="349.8" cy="111.2" rx="5.5" ry="4.7"/>
				
					<ellipse transform="matrix(0.7071 -0.7071 0.7071 0.7071 50.336 290.8948)" class="st0" cx="376.3" cy="84.7" rx="5.5" ry="4.7"/>
				
					<ellipse transform="matrix(0.707 -0.7072 0.7072 0.707 76.9115 301.9185)" class="st0" cx="402.8" cy="58.1" rx="5.5" ry="4.7"/>
				
					<ellipse transform="matrix(0.7071 -0.7071 0.7071 0.7071 103.3701 312.8589)" class="st0" cx="429.3" cy="31.7" rx="5.5" ry="4.7"/>
				
					<ellipse transform="matrix(0.7071 -0.7071 0.7071 0.7071 129.8807 323.8395)" class="st0" cx="455.8" cy="5.1" rx="5.5" ry="4.7"/>
			</g>
		</g>
	</g>
</g>
</svg>
